<svg xmlns="http://www.w3.org/2000/svg" viewBox="0 0 830.76 160" width="830.76" height="160">

<g>
<defs><linearGradient id="gAi" x1="0" y1="0" x2="1" y2="1">
<stop offset="0" stop-color="#15786E"/><stop offset="1" stop-color="#0E4D47"/></linearGradient></defs>
<rect x="0" y="0" width="160" height="160" rx="37.120000000000005" fill="url(#gAi)"/>
<path d="M80.0,48.0 C65.7584,48.0 54.239999999999995,59.5184 54.239999999999995,73.76 C54.239999999999995,93.08000000000001 80.0,121.60000000000001 80.0,121.60000000000001 C80.0,121.60000000000001 105.76,93.08000000000001 105.76,73.76 C105.76,59.5184 94.2416,48.0 80.0,48.0 Z M68.96,73.76 a11.040000000000003,11.040000000000003 0 1,0 22.080000000000005,0 a11.040000000000003,11.040000000000003 0 1,0 -22.080000000000005,0 Z" fill="#FFFFFF" fill-rule="evenodd"/>
<path d="M106.4,22.88 C109.85600000000001,30.483199999999997 110.3168,30.944 117.92,34.4 C110.3168,37.856 109.85600000000001,38.3168 106.4,45.92 C102.944,38.3168 102.48320000000001,37.856 94.88000000000001,34.4 C102.48320000000001,30.944 102.944,30.483199999999997 106.4,22.88 Z" fill="#E0942E"/>
</g>
<g transform="translate(204,-16.876000000000005)"><g transform="translate(-11.160,145.872) scale(0.18,-0.18)"><path transform="translate(0,0)" d="M405 566Q474 566 530.0 531.0Q586 496 618.5 431.0Q651 366 651 280Q651 194 618.5 128.5Q586 63 530.0 27.5Q474 -8 405 -8Q346 -8 302.0 15.5Q258 39 233 78V0H62V740H233V479Q257 518 302.0 542.0Q347 566 405 566ZM354 417Q303 417 267.5 380.0Q232 343 232 279Q232 215 267.5 178.0Q303 141 354 141Q405 141 441.0 178.5Q477 216 477 280Q477 344 441.5 380.5Q406 417 354 417Z" fill="#FFFFFF"/><path transform="translate(679,0)" d="M28 279Q28 365 66.0 430.5Q104 496 170.0 531.0Q236 566 318 566Q400 566 466.0 531.0Q532 496 570.0 430.5Q608 365 608 279Q608 193 569.5 127.5Q531 62 464.5 27.0Q398 -8 316 -8Q234 -8 168.5 27.0Q103 62 65.5 127.0Q28 192 28 279ZM434 279Q434 346 400.5 382.0Q367 418 318 418Q268 418 235.0 382.5Q202 347 202 279Q202 212 234.5 176.0Q267 140 316 140Q365 140 399.5 176.0Q434 212 434 279Z" fill="#FFFFFF"/><path transform="translate(1316,0)" d="M28 279Q28 365 66.0 430.5Q104 496 170.0 531.0Q236 566 318 566Q400 566 466.0 531.0Q532 496 570.0 430.5Q608 365 608 279Q608 193 569.5 127.5Q531 62 464.5 27.0Q398 -8 316 -8Q234 -8 168.5 27.0Q103 62 65.5 127.0Q28 192 28 279ZM434 279Q434 346 400.5 382.0Q367 418 318 418Q268 418 235.0 382.5Q202 347 202 279Q202 212 234.5 176.0Q267 140 316 140Q365 140 399.5 176.0Q434 212 434 279Z" fill="#FFFFFF"/><path transform="translate(1953,0)" d="M283 564Q336 564 378.0 545.5Q420 527 446 494V558H617V-266H446V70Q417 35 375.5 14.0Q334 -7 281 -7Q213 -7 155.0 29.0Q97 65 62.5 130.0Q28 195 28 278Q28 361 62.5 426.0Q97 491 155.5 527.5Q214 564 283 564ZM324 416Q294 416 266.0 400.5Q238 385 220.0 354.0Q202 323 202 278Q202 233 220.0 202.5Q238 172 266.0 156.5Q294 141 324 141Q354 141 382.5 156.5Q411 172 428.5 203.0Q446 234 446 279Q446 324 428.5 354.5Q411 385 383.0 400.5Q355 416 324 416Z" fill="#FFFFFF"/><path transform="translate(2632,0)" d="M233 558V0H62V558Z" fill="#FFFFFF"/><path transform="translate(2927,0)" d="M617 326V0H447V303Q447 359 418.0 390.0Q389 421 340 421Q291 421 262.0 390.0Q233 359 233 303V0H62V558H233V484Q259 521 303.0 542.5Q347 564 402 564Q500 564 558.5 500.5Q617 437 617 326Z" fill="#FFFFFF"/><path d="M2779.5,608 C2807.1,668.72 2810.78,672.4 2871.5,700 C2810.78,727.6 2807.1,731.28 2779.5,792 C2751.9,731.28 2748.22,727.6 2687.5,700 C2748.22,672.4 2751.9,668.72 2779.5,608 Z" fill="#E0942E"/></g></g>
</svg>