<svg xmlns="http://www.w3.org/2000/svg" viewBox="0 0 512 512" width="512" height="512">
<defs><linearGradient id="gIcon" x1="0" y1="0" x2="1" y2="1">
<stop offset="0" stop-color="#15786E"/><stop offset="1" stop-color="#0E4D47"/></linearGradient></defs>
<rect x="0" y="0" width="512" height="512" rx="118.784" fill="url(#gIcon)"/>
<path d="M256.0,153.6 C210.42687999999998,153.6 173.56799999999998,190.45888 173.56799999999998,236.03199999999998 C173.56799999999998,297.856 256.0,389.12 256.0,389.12 C256.0,389.12 338.432,297.856 338.432,236.03199999999998 C338.432,190.45888 301.57312,153.6 256.0,153.6 Z M220.672,236.03199999999998 a35.328,35.328 0 1,0 70.656,0 a35.328,35.328 0 1,0 -70.656,0 Z" fill="#FFFFFF" fill-rule="evenodd"/>
<path d="M340.48,73.21599999999998 C351.5392,97.54623999999998 353.01376,99.02079999999998 377.344,110.07999999999998 C353.01376,121.13919999999999 351.5392,122.61375999999998 340.48,146.944 C329.42080000000004,122.61375999999998 327.94624000000005,121.13919999999999 303.61600000000004,110.07999999999998 C327.94624000000005,99.02079999999998 329.42080000000004,97.54623999999998 340.48,73.21599999999998 Z" fill="#E0942E"/>
</svg>